<?xml version="1.0" encoding="UTF-8" standalone="no"?>
<svg
   id="Layer_1"
   data-name="Layer 1"
   viewBox="0 0 107.86 122.88"
   version="1.1"
   sodipodi:docname="kosz-ikona-v2.svg"
   xml:space="preserve"
   inkscape:version="1.4 (86a8ad7, 2024-10-11)"
   inkscape:export-filename="kosz-ikona-v2.png"
   inkscape:export-xdpi="96"
   inkscape:export-ydpi="96"
   xmlns:inkscape="http://www.inkscape.org/namespaces/inkscape"
   xmlns:sodipodi="http://sodipodi.sourceforge.net/DTD/sodipodi-0.dtd"
   xmlns="http://www.w3.org/2000/svg"
   xmlns:svg="http://www.w3.org/2000/svg"
   xmlns:rdf="http://www.w3.org/1999/02/22-rdf-syntax-ns#"
   xmlns:cc="http://creativecommons.org/ns#"
   xmlns:dc="http://purl.org/dc/elements/1.1/"><sodipodi:namedview
     id="namedview1"
     pagecolor="#ffffff"
     bordercolor="#000000"
     borderopacity="0.25"
     inkscape:showpageshadow="true"
     inkscape:pageopacity="0.0"
     inkscape:pagecheckerboard="true"
     inkscape:deskcolor="#d1d1d1"
     inkscape:zoom="6.9916566"
     inkscape:cx="50.774805"
     inkscape:cy="56.924993"
     inkscape:window-width="2087"
     inkscape:window-height="1324"
     inkscape:window-x="1401"
     inkscape:window-y="73"
     inkscape:window-maximized="0"
     inkscape:current-layer="Layer_1"
     showborder="false"
     inkscape:antialias-rendering="true"
     inkscape:clip-to-page="false"
     borderlayer="true" /><defs
     id="defs1"><style
       id="style1">.cls-1{fill-rule:evenodd;}</style></defs><title
     id="title1">gps</title><path
     class="cls-1"
     d="m 75.377261,58.104211 c 8.939465,3.373661 14.734562,8.766655 14.734562,14.848977 0,10.210198 -16.32365,18.482148 -36.467876,18.482148 -20.144226,0 -36.46788,-8.27195 -36.46788,-18.482148 0,-6.228299 6.085869,-11.734828 15.370201,-15.084161 0.338103,0.616342 0.676207,1.232684 1.021073,1.832807 0.725797,1.265122 1.476387,2.50862 2.251772,3.730491 -6.505118,2.09232 -10.677319,5.320005 -10.677319,8.92074 0,6.309397 12.624797,11.426661 28.204621,11.426661 15.579825,0 28.19786,-5.117264 28.19786,-11.426661 0,-3.373662 -3.610949,-6.406713 -9.358714,-8.499032 1.129267,-1.857135 2.190912,-3.78726 3.1917,-5.774152 z"
     id="path1"
     sodipodi:nodetypes="cssscccsssccc"
     style="fill:#db7d50;fill-opacity:1;stroke-width:0.741;stroke:#ffffff;stroke-opacity:0.4978261;stroke-dasharray:none;paint-order:normal;stroke-linecap:butt" /><metadata
     id="metadata1"><rdf:RDF><cc:Work
         rdf:about=""><dc:title>gps</dc:title></cc:Work></rdf:RDF></metadata><path
     class="cls-1"
     d="m 38.446856,32.375932 h 31.216012 c 0.250785,-0.01181 0.501864,0.01189 0.747867,0.0706 0.406622,0.105601 0.779835,0.344164 1.076928,0.688387 0.345128,0.390724 0.562304,0.912674 0.61325,1.473858 0.0095,0.212171 0.002,0.424928 -0.02243,0.635434 l -2.658666,32.499851 v 0 0.05737 0.123556 0 c -0.01757,0.134165 -0.04255,0.26683 -0.07479,0.397148 v 0 0.02648 0 c -0.28905,1.050833 -1.109453,1.771188 -2.045428,1.795989 H 40.746551 c -0.157829,-0.009 -0.314456,-0.03708 -0.467418,-0.08384 -0.150315,-0.05301 -0.295655,-0.123988 -0.433763,-0.211811 v 0 C 39.183608,69.399709 38.752566,68.593769 38.693653,67.695526 L 36.076115,35.266279 c -0.02987,-0.2425 -0.03739,-0.488105 -0.02244,-0.732516 0.05231,-0.553411 0.268105,-1.067405 0.609512,-1.451793 0.309354,-0.354847 0.698843,-0.596919 1.121803,-0.697213 0.220918,-0.04557 0.445162,-0.06479 0.669342,-0.05737 z M 36.382741,19.861393 h 11.767702 v -1.235568 0 c -0.0019,-0.03968 -0.0019,-0.07945 0,-0.119144 0.02355,-0.665075 0.258525,-1.29528 0.658125,-1.765097 v 0 c 0.419421,-0.488592 0.98491,-0.762812 1.574261,-0.763405 h 7.243102 0.11218 c 1.195094,0.0706 2.13292,1.235568 2.131424,2.647646 v 0 0 1.235568 h 11.965885 0.145835 c 0.875797,0.08453 1.564102,0.919397 1.611658,1.954845 v 0.220638 4.350964 c 0,0.631205 -0.433606,1.142898 -0.968487,1.1429 H 35.238504 c -0.530532,4.2e-5 -0.962345,-0.50363 -0.968491,-1.129661 v -4.452459 0 c -0.0039,-0.04549 -0.0039,-0.09131 0,-0.136795 v 0 c 0.05271,-0.956225 0.651504,-1.746616 1.450865,-1.91513 0.219368,-0.03397 0.440793,-0.04577 0.661863,-0.03531 z m 15.742621,25.84052 c 0.219453,-2.519547 3.329181,-2.519547 3.548634,0 v 12.408704 c -0.219453,2.519547 -3.329181,2.519547 -3.548634,0 z m 8.873454,-0.08826 c 0.102058,-1.100802 0.935772,-1.899693 1.86967,-1.791574 0.92751,-0.0098 1.684403,0.8735 1.686442,1.968083 l -0.747869,12.408702 c -0.100125,1.102043 -0.93514,1.902179 -1.86967,1.791575 -0.92751,0.0098 -1.684403,-0.8735 -1.686442,-1.968083 z m -17.380452,0.176516 c -3.7e-5,-1.093873 0.755797,-1.977893 1.682703,-1.968082 0.933898,-0.108118 1.767611,0.690772 1.869669,1.791573 l 0.747869,12.408705 c -0.0021,1.094583 -0.758933,1.977881 -1.686443,1.968083 -0.934529,0.110604 -1.769544,-0.689531 -1.86967,-1.791574 L 43.614625,45.790168 Z"
     id="path1-5"
     style="fill:#db7d50;fill-opacity:1;fill-rule:evenodd;stroke-width:0.40621;stroke:#ffffff;stroke-opacity:0.4978261"
     sodipodi:nodetypes="ccccccccccssccscccssccccccccccscsscccscccccccsccccssscsccccccccccccccccccccc" /></svg>
