<?xml version="1.0" encoding="UTF-8" standalone="no"?>
<svg
   id="Layer_1"
   data-name="Layer 1"
   viewBox="0 0 107.86 122.88"
   version="1.1"
   sodipodi:docname="bin-hidden-icon.svg"
   xml:space="preserve"
   inkscape:version="1.4.2 (f4327f4, 2025-05-13)"
   inkscape:export-filename="kosz-ikona-v2.png"
   inkscape:export-xdpi="96"
   inkscape:export-ydpi="96"
   xmlns:inkscape="http://www.inkscape.org/namespaces/inkscape"
   xmlns:sodipodi="http://sodipodi.sourceforge.net/DTD/sodipodi-0.dtd"
   xmlns="http://www.w3.org/2000/svg"
   xmlns:svg="http://www.w3.org/2000/svg"
   xmlns:rdf="http://www.w3.org/1999/02/22-rdf-syntax-ns#"
   xmlns:cc="http://creativecommons.org/ns#"
   xmlns:dc="http://purl.org/dc/elements/1.1/"><sodipodi:namedview
     id="namedview1"
     pagecolor="#ffffff"
     bordercolor="#000000"
     borderopacity="0.25"
     inkscape:showpageshadow="true"
     inkscape:pageopacity="0.0"
     inkscape:pagecheckerboard="true"
     inkscape:deskcolor="#d1d1d1"
     inkscape:zoom="6.9916566"
     inkscape:cx="50.703291"
     inkscape:cy="57.211048"
     inkscape:window-width="2087"
     inkscape:window-height="1324"
     inkscape:window-x="1401"
     inkscape:window-y="29"
     inkscape:window-maximized="0"
     inkscape:current-layer="Layer_1"
     showborder="false"
     inkscape:antialias-rendering="true"
     inkscape:clip-to-page="false"
     borderlayer="true" /><defs
     id="defs1"><style
       id="style1">.cls-1{fill-rule:evenodd;}</style></defs><title
     id="title1">gps</title><path
     class="cls-1"
     d="m 75.377261,58.104211 c 8.939465,3.373661 14.734562,8.766655 14.734562,14.848977 0,10.210198 -16.32365,18.482148 -36.467876,18.482148 -20.144226,0 -36.46788,-8.27195 -36.46788,-18.482148 0,-6.228299 6.085869,-11.734828 15.370201,-15.084161 0.338103,0.616342 0.676207,1.232684 1.021073,1.832807 0.725797,1.265122 1.476387,2.50862 2.251772,3.730491 -6.505118,2.09232 -10.677319,5.320005 -10.677319,8.92074 0,6.309397 12.624797,11.426661 28.204621,11.426661 15.579825,0 28.19786,-5.117264 28.19786,-11.426661 0,-3.373662 -3.610949,-6.406713 -9.358714,-8.499032 1.129267,-1.857135 2.190912,-3.78726 3.1917,-5.774152 z"
     id="path1"
     sodipodi:nodetypes="cssscccsssccc"
     style="fill:#b45c20;fill-opacity:0.5;stroke-width:0.741;stroke:#ffffff;stroke-opacity:0.4978261;stroke-dasharray:none;paint-order:normal;stroke-linecap:butt" /><metadata
     id="metadata1"><rdf:RDF><cc:Work
         rdf:about=""><dc:title>gps</dc:title></cc:Work></rdf:RDF></metadata><path
     class="cls-1"
     d="m 38.446856,32.375932 h 31.216012 c 0.250785,-0.01181 0.501864,0.01189 0.747867,0.0706 0.406622,0.105601 0.779835,0.344164 1.076928,0.688387 0.345128,0.390724 0.562304,0.912674 0.61325,1.473858 0.0095,0.212171 0.002,0.424928 -0.02243,0.635434 l -2.658666,32.499851 v 0 0.05737 0.123556 0 c -0.01757,0.134165 -0.04255,0.26683 -0.07479,0.397148 v 0 0.02648 0 c -0.28905,1.050833 -1.109453,1.771188 -2.045428,1.795989 H 40.746551 c -0.157829,-0.009 -0.314456,-0.03708 -0.467418,-0.08384 -0.150315,-0.05301 -0.295655,-0.123988 -0.433763,-0.211811 v 0 C 39.183608,69.399709 38.752566,68.593769 38.693653,67.695526 L 36.076115,35.266279 c -0.02987,-0.2425 -0.03739,-0.488105 -0.02244,-0.732516 0.05231,-0.553411 0.268105,-1.067405 0.609512,-1.451793 0.309354,-0.354847 0.698843,-0.596919 1.121803,-0.697213 0.220918,-0.04557 0.445162,-0.06479 0.669342,-0.05737 z M 36.382741,19.861393 h 11.767702 v -1.235568 0 c -0.0019,-0.03968 -0.0019,-0.07945 0,-0.119144 0.02355,-0.665075 0.258525,-1.29528 0.658125,-1.765097 v 0 c 0.419421,-0.488592 0.98491,-0.762812 1.574261,-0.763405 h 7.243102 0.11218 c 1.195094,0.0706 2.13292,1.235568 2.131424,2.647646 v 0 0 1.235568 h 11.965885 0.145835 c 0.875797,0.08453 1.564102,0.919397 1.611658,1.954845 v 0.220638 4.350964 c 0,0.631205 -0.433606,1.142898 -0.968487,1.1429 H 35.238504 c -0.530532,4.2e-5 -0.962345,-0.50363 -0.968491,-1.129661 v -4.452459 0 c -0.0039,-0.04549 -0.0039,-0.09131 0,-0.136795 v 0 c 0.05271,-0.956225 0.651504,-1.746616 1.450865,-1.91513 0.219368,-0.03397 0.440793,-0.04577 0.661863,-0.03531 z m 15.742621,25.84052 c 0.219453,-2.519547 3.329181,-2.519547 3.548634,0 v 12.408704 c -0.219453,2.519547 -3.329181,2.519547 -3.548634,0 z m 8.873454,-0.08826 c 0.102058,-1.100802 0.935772,-1.899693 1.86967,-1.791574 0.92751,-0.0098 1.684403,0.8735 1.686442,1.968083 l -0.747869,12.408702 c -0.100125,1.102043 -0.93514,1.902179 -1.86967,1.791575 -0.92751,0.0098 -1.684403,-0.8735 -1.686442,-1.968083 z m -17.380452,0.176516 c -3.7e-5,-1.093873 0.755797,-1.977893 1.682703,-1.968082 0.933898,-0.108118 1.767611,0.690772 1.869669,1.791573 l 0.747869,12.408705 c -0.0021,1.094583 -0.758933,1.977881 -1.686443,1.968083 -0.934529,0.110604 -1.769544,-0.689531 -1.86967,-1.791574 L 43.614625,45.790168 Z"
     id="path1-5"
     style="fill:#b45c20;fill-opacity:0.5;fill-rule:evenodd;stroke-width:0.40621;stroke:#ffffff;stroke-opacity:0.4978261"
     sodipodi:nodetypes="ccccccccccssccscccssccccccccccscsscccscccccccsccccssscsccccccccccccccccccccc" /><path
     id="path1-1"
     style="stroke-width:0.502986;fill:#a05a2c;stroke:#ffb14d;stroke-opacity:0.41726619"
     sodipodi:type="inkscape:offset"
     inkscape:radius="0.90458596"
     inkscape:original="M 83.9375 60.919922 L 46.816406 98.042969 L 49.779297 101.00781 L 86.902344 63.884766 L 83.9375 60.919922 z M 65.318359 64.609375 C 56.491963 64.78542 47.931006 68.29106 40.720703 74.853516 C 39.126238 76.305133 37.586911 77.920778 36.117188 79.695312 C 35.522155 80.331086 35.46758 81.322719 36.025391 82.025391 C 38.523722 85.154466 41.375002 87.816095 44.464844 89.998047 C 45.785685 90.931086 47.149521 91.776713 48.548828 92.533203 L 51.195312 89.886719 C 49.586261 89.075402 48.022452 88.137975 46.519531 87.076172 C 44.079043 85.352942 41.801561 83.300377 39.753906 80.925781 C 40.830295 79.703525 41.956061 78.559909 43.125 77.496094 C 49.687457 71.522634 57.435963 68.332772 65.388672 68.173828 C 67.675246 68.128056 69.980978 68.334186 72.285156 68.794922 L 75.255859 65.824219 C 71.950235 64.943491 68.618449 64.543485 65.318359 64.609375 z M 84.789062 69.777344 L 82.164062 72.400391 C 84.510492 73.664898 86.817792 75.216986 89.058594 77.064453 C 90.507696 78.259044 91.93607 79.585701 93.337891 81.046875 C 91.666972 83.217259 89.801954 85.103956 87.791016 86.708984 C 81.899543 91.412908 74.74184 93.727576 67.488281 93.759766 C 65.433584 93.768819 63.368857 93.596793 61.324219 93.242188 L 59.542969 95.023438 C 62.574465 95.745222 64.426697 97.337799 67.501953 97.324219 C 75.542684 97.288004 83.480832 94.720373 90.015625 89.503906 C 92.62763 87.418024 95.013962 84.912935 97.091797 81.978516 C 97.591765 81.306527 97.563488 80.353251 96.978516 79.710938 C 95.165252 77.718108 93.274295 75.920043 91.324219 74.3125 C 89.198098 72.559092 87.013768 71.048389 84.789062 69.777344 z M 66.541016 70.046875 C 63.526118 70.046875 60.795538 71.26791 58.820312 73.244141 C 56.844584 75.220373 55.623047 77.949444 55.623047 80.964844 C 55.623047 82.304799 55.864517 83.588848 56.306641 84.775391 L 59.167969 81.912109 C 59.128229 81.601767 59.107422 81.286252 59.107422 80.964844 C 59.107422 78.912159 59.940172 77.053968 61.285156 75.708984 C 62.63014 74.364 64.48833 73.53125 66.541016 73.53125 C 66.861921 73.53125 67.178886 73.552057 67.490234 73.591797 L 70.351562 70.730469 C 69.164517 70.288848 67.88097 70.046875 66.541016 70.046875 z M 76.9375 77.626953 L 73.962891 80.603516 C 73.968991 80.724232 73.972656 80.843625 73.972656 80.964844 C 73.972656 83.017027 73.139906 84.875718 71.794922 86.220703 C 70.449938 87.565687 68.593701 88.396484 66.541016 88.396484 C 66.419796 88.396484 66.297444 88.392719 66.177734 88.386719 L 63.203125 91.361328 C 64.254869 91.699335 65.377609 91.882812 66.541016 91.882812 C 69.55541 91.882812 72.283534 90.659323 74.259766 88.683594 C 76.234991 86.707866 77.457031 83.979742 77.457031 80.964844 C 77.457031 79.800935 77.274501 78.678194 76.9375 77.626953 z "
     d="M 83.296875,60.28125 46.175781,97.404297 a 0.90467642,0.90467642 0 0 0 0,1.277344 l 2.962891,2.964839 a 0.90467642,0.90467642 0 0 0 1.279297,0 L 87.541016,64.523437 a 0.90467642,0.90467642 0 0 0 0,-1.277343 L 84.576172,60.28125 a 0.90467642,0.90467642 0 0 0 -1.279297,0 z m -17.996094,3.423828 c -9.054114,0.180587 -17.834149,3.784087 -25.189453,10.478516 a 0.90467642,0.90467642 0 0 0 0,0.002 c -1.614009,1.46941 -3.16968,3.104043 -4.654297,4.892578 -0.001,0.0011 -9.07e-4,0.0028 -0.002,0.0039 -0.89388,0.958398 -0.971047,2.457321 -0.138672,3.50586 a 0.90467642,0.90467642 0 0 0 0.002,0.002 c 2.551659,3.195865 5.466209,5.915842 8.625,8.146484 1.350143,0.953738 2.744699,1.818128 4.175782,2.591797 a 0.90467642,0.90467642 0 0 0 1.068359,-0.15625 l 2.646484,-2.646484 a 0.90467642,0.90467642 0 0 0 -0.230468,-1.447266 c -1.569316,-0.791282 -3.096173,-1.704284 -4.5625,-2.740234 -2.162617,-1.527025 -4.170551,-3.354538 -6.023438,-5.408204 0.881819,-0.963042 1.775083,-1.906647 2.716797,-2.763671 6.418882,-5.842772 13.949173,-8.933544 21.671875,-9.087891 0.310577,-0.0062 0.626205,0.08062 0.9375,0.08398 -3.179413,0.05345 -6.070147,1.348379 -8.164063,3.44336 -2.138319,2.138865 -3.460937,5.099677 -3.460937,8.359375 0,1.44863 0.261182,2.841303 0.740234,4.126953 a 0.90467642,0.90467642 0 0 0 1.488282,0.322265 l 2.861328,-2.863281 a 0.90467642,0.90467642 0 0 0 0.255859,-0.753906 c -0.03498,-0.273182 -0.05273,-0.549663 -0.05273,-0.832031 0,-1.808032 0.729683,-3.434761 1.912109,-4.617188 1.182427,-1.182426 2.809155,-1.912109 4.617188,-1.912109 0.281803,0 0.559785,0.01774 0.833984,0.05273 a 0.90467642,0.90467642 0 0 0 0.753906,-0.257812 l 2.861328,-2.861328 a 0.90467642,0.90467642 0 0 0 -0.324218,-1.486329 c -1.154062,-0.42935 -2.41346,-0.616358 -3.703125,-0.664062 1.710595,0.05322 3.423906,0.11884 5.144531,0.462891 a 0.90467642,0.90467642 0 0 0 0.816406,-0.248047 l 2.970703,-2.970703 a 0.90467642,0.90467642 0 0 0 -0.40625,-1.513672 c -3.385898,-0.902116 -6.802207,-1.311732 -10.1875,-1.244141 z m 19.9375,5.287109 a 0.90467642,0.90467642 0 0 0 -1.08789,0.144532 l -2.625,2.623047 a 0.90467642,0.90467642 0 0 0 0.208984,1.4375 c 2.292311,1.235342 4.550537,2.752679 6.748047,4.564453 1.217161,1.003386 2.414531,2.153251 3.601562,3.351562 -1.491551,1.840503 -3.107506,3.491979 -4.857422,4.888672 -5.725369,4.571302 -12.678422,6.822168 -19.742187,6.853516 -0.29486,0.0013 -0.589555,-0.06786 -0.884766,-0.07422 3.235443,-0.0162 6.173433,-1.332177 8.298828,-3.457031 a 0.90467642,0.90467642 0 0 0 0.002,-0.002 c 2.137701,-2.138246 3.460937,-5.098085 3.460937,-8.357422 0,-1.258484 -0.197328,-2.474166 -0.5625,-3.613282 a 0.90467642,0.90467642 0 0 0 -1.501953,-0.363281 l -2.974609,2.976563 a 0.90467642,0.90467642 0 0 0 -0.263672,0.683593 c 0.0055,0.108931 0.0098,0.213421 0.0098,0.316407 0,1.80747 -0.729762,3.434839 -1.912109,4.617187 -1.182427,1.182427 -2.806629,1.910156 -4.615234,1.910156 -0.10249,0 -0.210531,-0.0044 -0.31836,-0.0098 a 0.90467642,0.90467642 0 0 0 -0.683594,0.265625 l -2.974609,2.974609 a 0.90467642,0.90467642 0 0 0 0.361328,1.5 c 1.092694,0.351168 2.263325,0.525419 3.466797,0.541016 -1.639924,-0.04531 -3.284072,-0.129417 -4.914062,-0.41211 a 0.90467642,0.90467642 0 0 0 -0.792969,0.251954 l -1.78125,1.78125 a 0.90467642,0.90467642 0 0 0 0.429687,1.519531 c 1.4103,0.335785 2.574335,0.885305 3.837891,1.386719 1.263556,0.501413 2.639407,0.944983 4.333984,0.9375 8.230617,-0.03707 16.37339,-2.668572 23.074219,-8.017579 2.673197,-2.134748 5.114688,-4.697514 7.238281,-7.693359 v -0.002 c 0.753057,-1.013716 0.702883,-2.453558 -0.171875,-3.414063 -1.841366,-2.023613 -3.762378,-3.851054 -5.746093,-5.486328 -2.163985,-1.784633 -4.390784,-3.325366 -6.66211,-4.623047 z" /></svg>
