<?xml version="1.0" encoding="UTF-8" standalone="no"?>
<svg
   id="Layer_1"
   data-name="Layer 1"
   viewBox="0 0 107.86 122.88"
   version="1.1"
   sodipodi:docname="bin-unaccepted-icon.svg"
   xml:space="preserve"
   inkscape:version="1.4.2 (f4327f4, 2025-05-13)"
   inkscape:export-filename="kosz-ikona-v2.png"
   inkscape:export-xdpi="96"
   inkscape:export-ydpi="96"
   xmlns:inkscape="http://www.inkscape.org/namespaces/inkscape"
   xmlns:sodipodi="http://sodipodi.sourceforge.net/DTD/sodipodi-0.dtd"
   xmlns="http://www.w3.org/2000/svg"
   xmlns:svg="http://www.w3.org/2000/svg"
   xmlns:rdf="http://www.w3.org/1999/02/22-rdf-syntax-ns#"
   xmlns:cc="http://creativecommons.org/ns#"
   xmlns:dc="http://purl.org/dc/elements/1.1/"><sodipodi:namedview
     id="namedview1"
     pagecolor="#ffffff"
     bordercolor="#000000"
     borderopacity="0.25"
     inkscape:showpageshadow="true"
     inkscape:pageopacity="0.0"
     inkscape:pagecheckerboard="true"
     inkscape:deskcolor="#d1d1d1"
     inkscape:zoom="6.9916566"
     inkscape:cx="50.703291"
     inkscape:cy="57.211048"
     inkscape:window-width="2087"
     inkscape:window-height="1324"
     inkscape:window-x="1401"
     inkscape:window-y="29"
     inkscape:window-maximized="0"
     inkscape:current-layer="Layer_1"
     showborder="false"
     inkscape:antialias-rendering="true"
     inkscape:clip-to-page="false"
     borderlayer="true" /><defs
     id="defs1"><style
       id="style1">.cls-1{fill-rule:evenodd;}</style></defs><title
     id="title1">gps</title><path
     class="cls-1"
     d="m 75.377261,58.104211 c 8.939465,3.373661 14.734562,8.766655 14.734562,14.848977 0,10.210198 -16.32365,18.482148 -36.467876,18.482148 -20.144226,0 -36.46788,-8.27195 -36.46788,-18.482148 0,-6.228299 6.085869,-11.734828 15.370201,-15.084161 0.338103,0.616342 0.676207,1.232684 1.021073,1.832807 0.725797,1.265122 1.476387,2.50862 2.251772,3.730491 -6.505118,2.09232 -10.677319,5.320005 -10.677319,8.92074 0,6.309397 12.624797,11.426661 28.204621,11.426661 15.579825,0 28.19786,-5.117264 28.19786,-11.426661 0,-3.373662 -3.610949,-6.406713 -9.358714,-8.499032 1.129267,-1.857135 2.190912,-3.78726 3.1917,-5.774152 z"
     id="path1"
     sodipodi:nodetypes="cssscccsssccc"
     style="fill:#44aa00;fill-opacity:0.29856116;stroke-width:0.741;stroke:#ffffff;stroke-opacity:0.19784173;stroke-dasharray:none;paint-order:normal;stroke-linecap:butt" /><metadata
     id="metadata1"><rdf:RDF><cc:Work
         rdf:about=""><dc:title>gps</dc:title></cc:Work></rdf:RDF></metadata><path
     class="cls-1"
     d="m 38.446856,32.375932 h 31.216012 c 0.250785,-0.01181 0.501864,0.01189 0.747867,0.0706 0.406622,0.105601 0.779835,0.344164 1.076928,0.688387 0.345128,0.390724 0.562304,0.912674 0.61325,1.473858 0.0095,0.212171 0.002,0.424928 -0.02243,0.635434 l -2.658666,32.499851 v 0 0.05737 0.123556 0 c -0.01757,0.134165 -0.04255,0.26683 -0.07479,0.397148 v 0 0.02648 0 c -0.28905,1.050833 -1.109453,1.771188 -2.045428,1.795989 H 40.746551 c -0.157829,-0.009 -0.314456,-0.03708 -0.467418,-0.08384 -0.150315,-0.05301 -0.295655,-0.123988 -0.433763,-0.211811 v 0 C 39.183608,69.399709 38.752566,68.593769 38.693653,67.695526 L 36.076115,35.266279 c -0.02987,-0.2425 -0.03739,-0.488105 -0.02244,-0.732516 0.05231,-0.553411 0.268105,-1.067405 0.609512,-1.451793 0.309354,-0.354847 0.698843,-0.596919 1.121803,-0.697213 0.220918,-0.04557 0.445162,-0.06479 0.669342,-0.05737 z M 36.382741,19.861393 h 11.767702 v -1.235568 0 c -0.0019,-0.03968 -0.0019,-0.07945 0,-0.119144 0.02355,-0.665075 0.258525,-1.29528 0.658125,-1.765097 v 0 c 0.419421,-0.488592 0.98491,-0.762812 1.574261,-0.763405 h 7.243102 0.11218 c 1.195094,0.0706 2.13292,1.235568 2.131424,2.647646 v 0 0 1.235568 h 11.965885 0.145835 c 0.875797,0.08453 1.564102,0.919397 1.611658,1.954845 v 0.220638 4.350964 c 0,0.631205 -0.433606,1.142898 -0.968487,1.1429 H 35.238504 c -0.530532,4.2e-5 -0.962345,-0.50363 -0.968491,-1.129661 v -4.452459 0 c -0.0039,-0.04549 -0.0039,-0.09131 0,-0.136795 v 0 c 0.05271,-0.956225 0.651504,-1.746616 1.450865,-1.91513 0.219368,-0.03397 0.440793,-0.04577 0.661863,-0.03531 z m 15.742621,25.84052 c 0.219453,-2.519547 3.329181,-2.519547 3.548634,0 v 12.408704 c -0.219453,2.519547 -3.329181,2.519547 -3.548634,0 z m 8.873454,-0.08826 c 0.102058,-1.100802 0.935772,-1.899693 1.86967,-1.791574 0.92751,-0.0098 1.684403,0.8735 1.686442,1.968083 l -0.747869,12.408702 c -0.100125,1.102043 -0.93514,1.902179 -1.86967,1.791575 -0.92751,0.0098 -1.684403,-0.8735 -1.686442,-1.968083 z m -17.380452,0.176516 c -3.7e-5,-1.093873 0.755797,-1.977893 1.682703,-1.968082 0.933898,-0.108118 1.767611,0.690772 1.869669,1.791573 l 0.747869,12.408705 c -0.0021,1.094583 -0.758933,1.977881 -1.686443,1.968083 -0.934529,0.110604 -1.769544,-0.689531 -1.86967,-1.791574 L 43.614625,45.790168 Z"
     id="path1-5"
     style="fill:#44aa00;fill-opacity:0.29856116;fill-rule:evenodd;stroke-width:0.40621;stroke:#ffffff;stroke-opacity:0.19784173"
     sodipodi:nodetypes="ccccccccccssccscccssccccccccccscsscccscccccccsccccssscsccccccccccccccccccccc" /><path
     id="path1-8"
     style="stroke-width:0.5;fill:#bcd35f;stroke:#969696;stroke-opacity:0.44604319;stroke-dasharray:none"
     sodipodi:type="inkscape:offset"
     inkscape:radius="1.1092926"
     inkscape:original="M 77.089844 62.021484 C 72.194117 62.021484 68.555061 63.157115 66.183594 65.439453 C 63.818493 67.724974 62.459524 70.733147 62.109375 74.476562 L 72.289062 75.740234 C 72.515068 73.699817 73.032763 72.258253 73.847656 71.443359 C 74.662549 70.618916 75.685064 70.207031 76.929688 70.207031 C 78.085181 70.207031 78.944606 70.475498 79.517578 71.003906 C 80.081 71.541863 80.367188 72.282314 80.367188 73.25 C 80.367188 74.208136 79.660655 75.266381 78.244141 76.421875 C 75.583005 78.624633 73.87406 80.164412 73.113281 81.042969 C 72.352502 81.918343 71.779696 82.876989 71.394531 83.943359 C 71.009367 85.000169 70.822266 86.378816 70.822266 88.072266 L 70.822266 89.064453 L 80.787109 89.064453 C 80.787109 87.702053 81.023322 86.592313 81.478516 85.751953 C 81.94326 84.898863 83.064644 83.780008 84.828125 82.373047 C 87.361934 80.386745 89.044482 78.694721 89.859375 77.316406 C 90.683818 75.93809 91.095703 74.496309 91.095703 73.009766 C 91.095703 69.425508 89.500306 66.560538 86.320312 64.402344 C 83.974311 62.817122 80.90329 62.021484 77.089844 62.021484 z M 70.474609 91.716797 L 70.474609 101.13867 L 81.15625 101.13867 L 81.15625 91.716797 L 70.474609 91.716797 z "
     d="m 77.089844,60.912109 c -5.067271,0 -9.028253,1.180492 -11.675782,3.728516 a 1.1094036,1.1094036 0 0 0 -0.002,0.002 c -2.562174,2.475963 -4.036447,5.776934 -4.40625,9.730469 a 1.1094036,1.1094036 0 0 0 0.966797,1.205078 l 10.179688,1.263672 a 1.1094036,1.1094036 0 0 0 1.240234,-0.978516 c 0.211894,-1.913008 0.721769,-3.116299 1.240234,-3.634765 a 1.1094036,1.1094036 0 0 0 0.0039,-0.0059 c 0.618605,-0.625855 1.293078,-0.90625 2.292968,-0.90625 0.978539,0 1.520982,0.223446 1.826172,0.501953 0.326227,0.314889 0.501953,0.688715 0.501953,1.431641 0,0.412805 -0.41539,1.252496 -1.714843,2.3125 a 1.1094036,1.1094036 0 0 0 -0.0059,0.0039 c -2.67704,2.215923 -4.382668,3.734862 -5.261718,4.75 -0.842426,0.969619 -1.491642,2.053447 -1.923829,3.25 -0.451453,1.239527 -0.638671,2.731457 -0.638671,4.50586 v 0.992187 a 1.1094036,1.1094036 0 0 0 1.109375,1.109375 h 9.964843 a 1.1094036,1.1094036 0 0 0 1.109375,-1.109375 c 0,-1.233348 0.220078,-2.159199 0.556641,-2.78125 0.300378,-0.551378 1.346863,-1.670174 3.058594,-3.037109 l 0.0078,-0.0059 c 2.579322,-2.022753 4.33845,-3.745043 5.291016,-5.353515 v -0.002 c 0.915213,-1.530655 1.394531,-3.184135 1.394531,-4.875 0,-3.913432 -1.84693,-7.207847 -5.261719,-9.525391 a 1.1094036,1.1094036 0 0 0 -0.002,-0.002 c -2.575435,-1.740254 -5.883821,-2.570313 -9.851562,-2.570313 z m -6.615235,29.695313 a 1.1094036,1.1094036 0 0 0 -1.109375,1.109375 v 9.421873 a 1.1094036,1.1094036 0 0 0 1.109375,1.10938 H 81.15625 a 1.1094036,1.1094036 0 0 0 1.109375,-1.10938 V 91.716797 A 1.1094036,1.1094036 0 0 0 81.15625,90.607422 Z" /></svg>
